<svg width="489" height="383" viewBox="0 0 489 383" fill="none" xmlns="http://www.w3.org/2000/svg">
<rect x="0.5" width="488.5" height="383" rx="16" fill="#F2F2F2"/>
<text fill="#030229" xml:space="preserve" style="white-space: pre" font-family="Plus Jakarta Sans" font-size="14" font-weight="600" letter-spacing="-0.54px"><tspan x="25.5" y="37.212">Status</tspan></text>
<path d="M37.5 46.25C35.5716 46.25 33.6866 46.8218 32.0832 47.8932C30.4798 48.9645 29.2301 50.4873 28.4922 52.2688C27.7542 54.0504 27.5611 56.0108 27.9373 57.9021C28.3136 59.7934 29.2422 61.5307 30.6057 62.8943C31.9693 64.2579 33.7066 65.1865 35.5979 65.5627C37.4892 65.9389 39.4496 65.7458 41.2312 65.0078C43.0127 64.2699 44.5355 63.0202 45.6068 61.4168C46.6782 59.8134 47.25 57.9284 47.25 56C47.2474 53.415 46.2193 50.9365 44.3914 49.1086C42.5635 47.2807 40.0851 46.2526 37.5 46.25ZM41.03 59.53C40.8894 59.6705 40.6988 59.7493 40.5 59.7493C40.3013 59.7493 40.1106 59.6705 39.97 59.53L36.97 56.53C36.8293 56.3895 36.7502 56.1988 36.75 56V50C36.75 49.8011 36.829 49.6103 36.9697 49.4697C37.1103 49.329 37.3011 49.25 37.5 49.25C37.6989 49.25 37.8897 49.329 38.0303 49.4697C38.171 49.6103 38.25 49.8011 38.25 50V55.69L41.03 58.47C41.1705 58.6106 41.2493 58.8012 41.2493 59C41.2493 59.1988 41.1705 59.3894 41.03 59.53Z" fill="black"/>
<text fill="black" xml:space="preserve" style="white-space: pre" font-family="Plus Jakarta Sans" font-size="20" font-weight="600" letter-spacing="0px"><tspan x="57.5" y="62.16">Verification Pending</tspan></text>
<text fill="#7F7F7F" xml:space="preserve" style="white-space: pre" font-family="Plus Jakarta Sans" font-size="14" letter-spacing="0px"><tspan x="279.5" y="63.712">Last Updated: July 21,2025</tspan></text>
<text fill="#030229" xml:space="preserve" style="white-space: pre" font-family="Plus Jakarta Sans" font-size="14" font-weight="600" letter-spacing="-0.54px"><tspan x="25.5" y="119.212">Reviewer Comments</tspan></text>
<text fill="#7F7F7F" xml:space="preserve" style="white-space: pre" font-family="Plus Jakarta Sans" font-size="14" letter-spacing="0px"><tspan x="25.5" y="141.712">-</tspan></text>
</svg>
